<svg id="图层_1" data-name="图层 1" xmlns="http://www.w3.org/2000/svg" viewBox="0 0 209.07 340.24"><defs><style>.cls-1{fill:#fff;}.cls-2{fill:#32bfa1;}.cls-3{fill:#ccf5e9;}.cls-4{fill:#cdece5;}</style></defs><title>先荐LOGO</title><polygon class="cls-1" points="175.72 239.93 175.72 233.46 163.51 233.46 163.52 239.93 142.46 239.93 142.46 233.46 130.26 233.46 130.26 239.93 109.47 239.93 109.47 252.13 163.52 252.13 163.53 256.14 175.73 256.14 175.72 252.13 196.96 252.13 196.96 239.93 175.72 239.93"/><path class="cls-1" d="M195.77,262.72h-53.6c.3-3,.29-4.92.29-5.11h-12.2a43.91,43.91,0,0,1-.37,5.11h-19V274h16.38c0,.09-.05.17-.08.25-3.79,10.57-8.72,15.71-17.71,15.71v12.1a31.2,31.2,0,0,0,7.25-.83v39h12.2V294.48c4.09-4,7.33-9.39,9.76-16.19.52-1.46,1-2.89,1.36-4.29h55.73Z"/><polygon class="cls-1" points="192.6 284.59 148.14 284.59 148.14 296.69 171.68 296.69 164.43 308.7 140.79 308.7 140.81 320.8 164.22 320.8 164.22 340.24 177.74 340.24 177.74 320.8 196.96 320.8 196.96 308.7 178.08 308.7 192.6 284.59"/><path class="cls-1" d="M61.69,257.82H93v-12.1H61.69V233.45H49.48v12.27H34.1a57.85,57.85,0,0,0,.77-8.25H22.63c-.17,5.89-1.29,12.44-4.63,16.37a11.17,11.17,0,0,1-4.86,3v12.41a23.49,23.49,0,0,0,14.21-7.67A25.73,25.73,0,0,0,30,257.82H49.48V282l-36.34-.08V294l25.75.05c-1,8-2.83,17-6.77,21.81-8.13,10-16.94,12.15-20.41,12.3v12.09c5.67-.18,18.66-2.92,29.92-16.8,6.12-7.55,8.47-19.73,9.59-29.37l12,0v46.15H98V329.1H75.45v-35l22.58.05v-12.1L61.69,282Z"/><path class="cls-2" d="M209.07,104.54A104.52,104.52,0,0,1,122,207.63a104.55,104.55,0,1,1,87.1-103.09Z"/><path class="cls-3" d="M52.68,100.7a1.41,1.41,0,0,0,2.52,0l2.18-4.5h-7Z"/><path class="cls-3" d="M64.87,100.7a1.41,1.41,0,0,0,2.52,0l2.19-4.5h-7Z"/><path class="cls-3" d="M76.32,100.7a1.41,1.41,0,0,0,2.52,0L81,96.17H74Z"/><path class="cls-3" d="M89.62,100.7a1.41,1.41,0,0,0,2.52,0l2.19-4.5h-7Z"/><path class="cls-1" d="M194.34,158.12A104.75,104.75,0,0,1,122,207.66c-.92-1.67-1.83-3.35-2.59-5-.38-.91-.77-1.83-1.15-2.82-.23-.76-.53-1.52-.76-2.36a93.92,93.92,0,0,1-3.2-16.39c-.69-6-1.07-12.42-1.22-18.75-1.07.3-2.14.53-3,.84a13.28,13.28,0,0,1-6,0,11.71,11.71,0,0,1-4.65-2.52C89,151.41,79.16,150,73.9,150h-.08a18.74,18.74,0,0,0-4,.61h-.15c-.08,0-.16.08-.23.08H69.4a2.32,2.32,0,0,1-.69.07,3.65,3.65,0,0,1-1-7.16.56.56,0,0,0,.23-.08,29.54,29.54,0,0,1,9.76-1,.27.27,0,0,1,.23.08c8.54.53,15.55,4.49,19.66,7.31a4.07,4.07,0,0,0,5.87-1.29,37.65,37.65,0,0,1,10-11c.23-5.56.61-10.29.91-13.64s.46-5.34.46-5.34H81.52c-10.52,0-10.14-11.36-10.14-11.36H91.2c10.67,0,10.37-11.13,10.37-11.13H46.46a2.93,2.93,0,0,1-3-3V70.53S40.66,32.42,80.76,32.42h49.32s31.25-3.21,31.25,34.91v39.26s-.61,12.5,9.61,24.85Z"/><path class="cls-4" d="M132.75,129c11.89-3.33,15.78-10.4,15.78-10.4H114.82s-.82,7.84-1.34,19h0a54,54,0,0,1,19.12-8.55h.06Z"/><path class="cls-4" d="M113.11,162.31c.28,12.64,1.45,25.59,4.38,35.13a116.2,116.2,0,0,1,8.8-28.21,103.38,103.38,0,0,1,9-14.81c-6.3,3.18-15.37,6-22.2,7.89Z"/><path class="cls-4" d="M112.22,96.18s-2.33,11.09-10.1,11.09h-11c10.69,0,10.42-11.09,10.42-11.09Z"/><path class="cls-4" d="M57.14,47.24a21.1,21.1,0,0,0-4,6.69,1.45,1.45,0,0,0,1.37,1.9h3.7a1.45,1.45,0,0,0,1.44-1.44V48.16A1.44,1.44,0,0,0,57.14,47.24Z"/><path class="cls-2" d="M141.17,56.16v9.51s0,6.58-6.59,6.58S128,65.67,128,65.67V56.16c0-5.12,4-6.58,6.58-6.58A6.49,6.49,0,0,1,141.17,56.16Z"/></svg>