<?xml version="1.0" encoding="UTF-8"?>
<svg width="16px" height="16px" viewBox="0 0 16 16" version="1.1" xmlns="http://www.w3.org/2000/svg" xmlns:xlink="http://www.w3.org/1999/xlink">
    <!-- Generator: Sketch 50.2 (55047) - http://www.bohemiancoding.com/sketch -->
    <title>Rectangle Copy 7</title>
    <desc>Created with Sketch.</desc>
    <defs></defs>
    <g id="Page-1" stroke="none" stroke-width="1" fill="none" fill-rule="evenodd">
        <g id="1-1-内容表表格-线上-默认" transform="translate(-234.000000, -138.000000)" fill="#333333" fill-rule="nonzero">
            <g id="Group-25" transform="translate(226.000000, 128.000000)">
                <g id="Group-12-Copy-2">
                    <g id="筛选" transform="translate(8.000000, 10.000000)">
                        <path d="M8.80469201,14.8000277 C8.36286421,14.8000277 8.00469201,14.4418555 8.00469201,14.0000277 L8.00469201,7.81202774 C8.00421385,7.48055511 8.12516599,7.16038768 8.34469201,6.91202774 L8.38069201,6.87202774 L11.252692,4.00002774 L3.85669201,4.00002774 L6.08469201,6.92002774 C6.29127329,7.16518438 6.40460806,7.47543829 6.40469201,7.79602774 L6.40469201,11.6520277 L6.96869201,12.2200277 C7.19699294,12.4155396 7.29643757,12.7225225 7.22614012,13.0147629 C7.15584267,13.3070034 6.92766765,13.5351784 6.63542719,13.6054758 C6.34318673,13.6757733 6.03620392,13.5763287 5.84069201,13.3480277 L5.04069201,12.5480277 C4.89430164,12.402629 4.80974821,12.206293 4.80469201,12.0000277 L4.80469201,7.89602774 L2.32869201,4.65202774 C1.98081486,4.2464471 1.90179337,3.67509082 2.12652966,3.19031482 C2.35126596,2.70553883 2.83836755,2.39663036 3.37269201,2.40002774 L11.836692,2.40002774 C12.3714335,2.40196021 12.8557216,2.71618466 13.0753769,3.20373331 C13.2950322,3.69128196 13.2095331,4.2622127 12.856692,4.66402774 L12.820692,4.70002774 L9.62069201,7.90002774 L9.62069201,14.0000277 C9.62073501,14.2150024 9.53425675,14.4209484 9.38074916,14.571446 C9.22724157,14.7219437 9.01962371,14.8043272 8.80469201,14.8000277 Z M11.904692,10.4000277 L11.304692,10.4000277 C10.8628642,10.4000277 10.504692,10.0418555 10.504692,9.60002774 C10.504692,9.15819994 10.8628642,8.80002774 11.304692,8.80002774 L11.904692,8.80002774 C12.3465198,8.80002774 12.704692,9.15819994 12.704692,9.60002774 C12.704692,10.0418555 12.3465198,10.4000277 11.904692,10.4000277 Z M12.304692,13.0000277 L11.304692,13.0000277 C10.8628642,13.0000277 10.504692,12.6418555 10.504692,12.2000277 C10.504692,11.7581999 10.8628642,11.4000277 11.304692,11.4000277 L12.304692,11.4000277 C12.7465198,11.4000277 13.104692,11.7581999 13.104692,12.2000277 C13.104692,12.6418555 12.7465198,13.0000277 12.304692,13.0000277 Z" id="Combined-Shape"></path>
                    </g>
                </g>
            </g>
        </g>
    </g>
</svg>