<?xml version="1.0" encoding="UTF-8"?>
<svg width="14px" height="14px" viewBox="0 0 14 14" version="1.1" xmlns="http://www.w3.org/2000/svg" xmlns:xlink="http://www.w3.org/1999/xlink">
    <!-- Generator: Sketch 50.2 (55047) - http://www.bohemiancoding.com/sketch -->
    <title>lock-default</title>
    <desc>Created with Sketch.</desc>
    <defs></defs>
    <g id="Page-1" stroke="none" stroke-width="1" fill="none" fill-rule="evenodd">
        <g id="1-6-封禁" transform="translate(-1282.000000, -139.000000)" fill="#333333" fill-rule="nonzero">
            <g id="按钮" transform="translate(980.000000, 131.000000)">
                <g id="Group-13" transform="translate(286.000000, 0.000000)">
                    <g id="已锁" transform="translate(16.000000, 8.000000)">
                        <path d="M11.235,5.84411378 L10.2375,5.84411378 L10.2375,3.59361378 C10.1823156,1.9797639 8.85804311,0.7 7.24325,0.7 C5.62845689,0.7 4.30418443,1.9797639 4.249,3.59361378 L4.249,5.84411378 L3.2515,5.84411378 C2.82872085,5.82629227 2.47078228,6.15296983 2.45,6.57561378 L2.45,12.4486138 C2.4670793,12.8750655 2.82492953,13.2079131 3.2515,13.1941138 L11.235,13.1941138 C11.6563811,13.2081178 12.0120435,12.8835176 12.0365,12.4626138 L12.0365,6.57561378 C12.0120435,6.15470992 11.6563811,5.83010974 11.235,5.84411378 Z M5.446,3.59361378 C5.48845295,2.63184114 6.28054087,1.87394497 7.24325,1.87394497 C8.20595913,1.87394497 8.99804705,2.63184114 9.0405,3.59361378 L9.0405,5.84411378 L5.446,5.84411378 L5.446,3.59361378 Z M10.836,12.0776138 L3.6505,12.0776138 L3.6505,7.24411378 L10.836,7.24411378 L10.836,12.0776138 Z M7.2415,10.7441138 C7.46186162,10.7441138 7.6405,10.5654754 7.6405,10.3451138 L7.6405,9.77461378 C7.95329048,9.59402412 8.1057889,9.22586036 8.01230881,8.87698791 C7.91882872,8.52811547 7.60267933,8.28552551 7.2415,8.28552551 C6.88032067,8.28552551 6.56417128,8.52811547 6.47069119,8.87698791 C6.3772111,9.22586036 6.52970952,9.59402412 6.8425,9.77461378 L6.8425,10.3451138 C6.8425,10.5654754 7.02113838,10.7441138 7.2415,10.7441138 Z"></path>
                    </g>
                </g>
            </g>
        </g>
    </g>
</svg>