<?xml version="1.0" encoding="UTF-8"?>
<svg width="16px" height="16px" viewBox="0 0 16 16" version="1.1" xmlns="http://www.w3.org/2000/svg" xmlns:xlink="http://www.w3.org/1999/xlink">
    <!-- Generator: Sketch 50.2 (55047) - http://www.bohemiancoding.com/sketch -->
    <title>not necessary</title>
    <desc>Created with Sketch.</desc>
    <defs></defs>
    <g id="内容表修改" stroke="none" stroke-width="1" fill="none" fill-rule="evenodd">
        <g id="1-1-场景表格-线上-筛选关闭" transform="translate(-663.000000, -231.000000)" fill="#16C4C6" fill-rule="nonzero">
            <g id="Group" transform="translate(225.000000, 176.000000)">
                <g id="Group-8" transform="translate(346.000000, 1.000000)">
                    <g id="置顶操作-copy-2" transform="translate(92.000000, 11.000000)">
                        <g id="Group-24-Copy-18" transform="translate(0.000000, 43.000000)">
                            <g id="禁止推送">
                                <path d="M14.1108326,14.3723563 C13.8990019,14.3714631 13.6961727,14.2865914 13.5468326,14.1363563 L2.34683259,2.93635626 C2.07501116,2.61894804 2.09328678,2.14580093 2.38878202,1.85030569 C2.68427725,1.55481045 3.15742437,1.53653483 3.47483259,1.80835626 L14.6748326,13.0083563 C14.9022172,13.2370922 14.9700082,13.5800006 14.8467664,13.8780532 C14.7235247,14.1761059 14.4333571,14.3710021 14.1108326,14.3723563 Z M1.64283259,7.68435626 L4.13483259,6.44435626 L5.33483259,7.64435626 L3.63483259,8.49235626 L4.07883259,8.77235626 C4.36177125,8.90239227 4.54354708,9.18478946 4.54474768,9.49617701 C4.54594828,9.80756456 4.36635548,10.0913551 4.08442797,10.223569 C3.80250046,10.3557829 3.46947195,10.3123935 3.23083259,10.1123563 L1.57883259,9.08035626 C1.3321924,8.9276307 1.18755684,8.65335313 1.20084248,8.36356015 C1.21412812,8.07376718 1.38325288,7.81387404 1.64283259,7.68435626 Z M9.41083259,12.0003563 L9.47483259,11.7843563 L10.7108326,13.0203563 L10.5268326,13.4883563 C10.4405821,13.7120664 10.2585421,13.885298 10.0308326,13.9603563 C9.80244666,14.0345697 9.552803,14.0022628 9.35083259,13.8723563 L7.35083259,12.5923563 C7.09861684,12.4439034 6.94759372,12.169576 6.95705047,11.8770669 C6.96650721,11.5845577 7.1349343,11.3205581 7.39621222,11.1887064 C7.65749015,11.0568547 7.96991293,11.0781975 8.21083259,11.2443563 L9.41083259,12.0003563 Z M4.74683259,10.5243563 L6.51083259,8.77235626 L7.62283259,9.91235626 L6.11083259,11.4203563 L6.11083259,13.5723563 C6.11083259,14.0141841 5.75266039,14.3723563 5.31083259,14.3723563 C4.86900479,14.3723563 4.51083259,14.0141841 4.51083259,13.5723563 L4.51083259,11.0883563 C4.51172571,10.8765255 4.59659748,10.6736964 4.74683259,10.5243563 Z M14.5388326,1.80835626 C14.7831937,2.03061727 14.8658251,2.38021165 14.7468326,2.68835626 L12.3028326,8.96835626 L11.0668326,7.73235626 L11.8668326,5.67635626 L10.4428326,7.10435626 L9.31083259,5.97235626 L9.95483259,5.32835626 L9.11483259,5.74835626 L7.91483259,4.54835626 L13.6428326,1.68435626 C13.9384448,1.53667018 14.2944403,1.58593742 14.5388326,1.80835626 Z"></path>
                            </g>
                        </g>
                    </g>
                </g>
            </g>
        </g>
    </g>
</svg>