<?xml version="1.0" encoding="UTF-8"?>
<svg width="14px" height="14px" viewBox="0 0 14 14" version="1.1" xmlns="http://www.w3.org/2000/svg" xmlns:xlink="http://www.w3.org/1999/xlink">
    <!-- Generator: Sketch 50.2 (55047) - http://www.bohemiancoding.com/sketch -->
    <title>Rectangle Copy 5</title>
    <desc>Created with Sketch.</desc>
    <defs></defs>
    <g id="Page-1" stroke="none" stroke-width="1" fill="none" fill-rule="evenodd">
        <g id="1-1-内容表表格-线上-默认" transform="translate(-1094.000000, -139.000000)" fill="#D5D9DD" fill-rule="nonzero">
            <g id="按钮" transform="translate(980.000000, 131.000000)">
                <g id="Group-12-Copy" transform="translate(94.000000, 0.000000)">
                    <g id="推送" transform="translate(20.000000, 8.000000)">
                        <path d="M10.4075364,4.93237951 L5.34697852,9.99293734 L5.34697852,11.8759373 C5.34697852,12.2625367 5.03357784,12.5759373 4.64697852,12.5759373 C4.26037919,12.5759373 3.94697852,12.2625367 3.94697852,11.8759373 L3.94697852,9.70243734 C3.94775999,9.51708545 4.02202279,9.33960995 4.15347852,9.20893734 L8.70301227,4.65940359 L3.18047852,7.41693734 L3.56897852,7.66193734 C3.78896304,7.79077476 3.92151012,8.02902139 3.91498911,8.2838738 C3.9084681,8.5387262 3.76391021,8.76988244 3.53762463,8.88730095 C3.31133906,9.00471947 3.0391102,8.9898319 2.82697852,8.84843734 L1.38147852,7.94543734 C1.16566835,7.81180248 1.03911224,7.57180961 1.05073717,7.31824075 C1.06236211,7.06467189 1.21034627,6.8372654 1.43747852,6.72393734 L11.9374785,1.47393734 C12.1960954,1.34460411 12.5076192,1.38759493 12.7215404,1.58213923 C12.9354616,1.77668352 13.0077493,2.08273868 12.9034785,2.35243734 L9.22847852,11.8024373 C9.15563687,12.0021901 8.99595499,12.1580087 8.79447852,12.2259373 C8.72274824,12.2457736 8.64831358,12.2540441 8.57397852,12.2504373 C8.4410426,12.2494228 8.31114407,12.2105747 8.19947852,12.1384373 L6.44947852,11.0184373 C6.22878973,10.8885411 6.09664451,10.6485046 6.10491916,10.3925591 C6.11319381,10.1366136 6.26056751,9.90561393 6.4891857,9.79024368 C6.71780388,9.67487343 6.99117381,9.6935484 7.20197852,9.83893734 L8.25197852,10.5004373 L10.4075364,4.93237951 Z"></path>
                    </g>
                </g>
            </g>
        </g>
    </g>
</svg>