<?xml version="1.0" encoding="UTF-8"?>
<svg width="14px" height="14px" viewBox="0 0 14 14" version="1.1" xmlns="http://www.w3.org/2000/svg" xmlns:xlink="http://www.w3.org/1999/xlink">
    <!-- Generator: Sketch 50.2 (55047) - http://www.bohemiancoding.com/sketch -->
    <title>Rectangle Copy 2</title>
    <desc>Created with Sketch.</desc>
    <defs></defs>
    <g id="Page-1" stroke="none" stroke-width="1" fill="none" fill-rule="evenodd">
        <g id="1-2-内容表表格-已选择-已搜索" transform="translate(-1200.000000, -139.000000)" fill="#16C4C6" fill-rule="nonzero">
            <g id="按钮" transform="translate(980.000000, 131.000000)">
                <g id="Group-12" transform="translate(204.000000, 0.000000)">
                    <g id="置顶" transform="translate(16.000000, 8.000000)">
                        <path d="M5.90313926,5.985 L3.29563926,8.5925 C3.02212024,8.86601902 2.57865829,8.86601901 2.30513927,8.59249999 C2.03162025,8.31898097 2.03162024,7.87551902 2.30513926,7.602 L6.45963926,3.451 C6.73266548,3.17959348 7.17361304,3.17959348 7.44663926,3.451 L11.6011393,7.602 C11.8030612,7.80226332 11.8637526,8.10478675 11.7546989,8.36743705 C11.6456453,8.63008736 11.3885248,8.80065384 11.1041393,8.799 C10.9187874,8.79821852 10.7413119,8.72395573 10.6106393,8.5925 L8.00313926,5.985 L8.00313926,11.9 C8.00313926,12.479899 7.53303825,12.95 6.95313926,12.95 C6.37324027,12.95 5.90313926,12.479899 5.90313926,11.9 L5.90313926,5.985 Z M10.8031393,2.45 L3.10313926,2.45 C2.71653993,2.45 2.40313926,2.13659932 2.40313926,1.75 C2.40313926,1.36340068 2.71653993,1.05 3.10313926,1.05 L10.8031393,1.05 C11.1897386,1.05 11.5031393,1.36340068 11.5031393,1.75 C11.5031393,2.13659932 11.1897386,2.45 10.8031393,2.45 Z"></path>
                    </g>
                </g>
            </g>
        </g>
    </g>
</svg>