<?xml version="1.0" encoding="UTF-8"?>
<svg width="14px" height="14px" viewBox="0 0 14 14" version="1.1" xmlns="http://www.w3.org/2000/svg" xmlns:xlink="http://www.w3.org/1999/xlink">
    <!-- Generator: Sketch 50.2 (55047) - http://www.bohemiancoding.com/sketch -->
    <title>weight-default</title>
    <desc>Created with Sketch.</desc>
    <defs></defs>
    <g id="Page-1" stroke="none" stroke-width="1" fill="none" fill-rule="evenodd">
        <g id="1-6-封禁" transform="translate(-996.000000, -139.000000)" fill="#333333" fill-rule="nonzero">
            <g id="按钮" transform="translate(980.000000, 131.000000)">
                <g id="Group-12-Copy-2">
                    <g id="权重" transform="translate(16.000000, 8.000000)">
                        <path d="M12.5999999,5.831 L8.86899991,5.831 C8.48240059,5.831 8.16899991,5.51759932 8.16899991,5.131 L8.16899991,1.4 C8.16899991,1.01340068 8.48240059,0.7 8.86899991,0.7 C11.3145753,0.703854342 13.2961456,2.68542457 13.2999999,5.131 C13.2999999,5.51759932 12.9865992,5.831 12.5999999,5.831 Z M9.56899991,4.431 L11.8194999,4.431 C11.5511216,3.31863999 10.6817763,2.45064665 9.56899991,2.184 L9.56899991,4.431 Z M0.7,7.3185 C0.7,4.06913271 3.33413262,1.43500005 6.58349991,1.435 C6.97009924,1.435 7.28349991,1.74840068 7.28349991,2.135 L7.28349991,6.6185 L11.7669999,6.6185 C12.1535992,6.6185 12.4669999,6.93190068 12.4669999,7.3185 C12.4631427,10.5662683 9.83126819,13.1981428 6.58349991,13.202 C3.33413262,13.202 0.7,10.5678673 0.7,7.3185 Z M5.88349991,2.8875 C3.61672111,3.24546527 1.98617933,5.25730045 2.10541464,7.54907011 C2.22464996,9.84083978 4.05516509,11.6726044 6.34685287,11.7934035 C8.63854064,11.9142026 10.651488,10.285034 11.0109999,8.0185 L6.58349991,8.0185 C6.19690059,8.0185 5.88349991,7.70509932 5.88349991,7.3185 L5.88349991,2.8875 Z"></path>
                    </g>
                </g>
            </g>
        </g>
    </g>
</svg>